<svg width="155" height="47" viewBox="0 0 155 47" fill="none" xmlns="http://www.w3.org/2000/svg">
<path fill-rule="evenodd" clip-rule="evenodd" d="M0 7.27274C0 3.25612 3.25611 0 7.27273 0H147.636C151.653 0 154.909 3.25611 154.909 7.27273V39.2727C154.909 43.2893 151.653 46.5455 147.636 46.5455H7.27272C3.2561 46.5455 0 43.2893 0 39.2727V7.27274Z" fill="black"/>
<path d="M56.0597 13.3573C55.9638 14.1776 55.6602 14.8115 55.1488 15.2589C54.641 15.7028 53.9645 15.9248 53.1194 15.9248C52.2032 15.9248 51.4681 15.5963 50.9141 14.9393C50.3637 14.2824 50.0885 13.4035 50.0885 12.3026V11.5569C50.0885 10.836 50.2163 10.2021 50.472 9.65524C50.7312 9.10837 51.097 8.68933 51.5693 8.39814C52.0416 8.10339 52.5885 7.95602 53.2099 7.95602C54.0338 7.95602 54.6943 8.18685 55.1915 8.64849C55.6886 9.10659 55.978 9.74224 56.0597 10.5555H55.0316C54.9429 9.93756 54.7493 9.49011 54.451 9.21312C54.1563 8.93614 53.7426 8.79764 53.2099 8.79764C52.5565 8.79764 52.0434 9.03912 51.6705 9.52207C51.3012 10.005 51.1165 10.6922 51.1165 11.5835V12.3346C51.1165 13.1762 51.2923 13.8456 51.6439 14.3427C51.9954 14.8399 52.4873 15.0885 53.1194 15.0885C53.6875 15.0885 54.1226 14.9606 54.4244 14.705C54.7298 14.4457 54.9322 13.9965 55.0316 13.3573H56.0597ZM57.0451 12.8832C57.0451 12.3186 57.1552 11.8108 57.3754 11.3598C57.5991 10.9088 57.9081 10.5608 58.3022 10.3158C58.7 10.0707 59.1527 9.94821 59.6606 9.94821C60.4454 9.94821 61.0792 10.2199 61.5622 10.7632C62.0487 11.3065 62.2919 12.0292 62.2919 12.9312V13.0004C62.2919 13.5615 62.1836 14.0658 61.967 14.5132C61.7539 14.9571 61.4468 15.3033 61.0455 15.5519C60.6478 15.8005 60.1897 15.9248 59.6712 15.9248C58.89 15.9248 58.2561 15.6531 57.7696 15.1098C57.2866 14.5665 57.0451 13.8474 57.0451 12.9525V12.8832ZM58.0359 13.0004C58.0359 13.6396 58.1833 14.1528 58.478 14.5398C58.7763 14.9269 59.174 15.1204 59.6712 15.1204C60.1719 15.1204 60.5696 14.9251 60.8644 14.5345C61.1591 14.1403 61.3065 13.5899 61.3065 12.8832C61.3065 12.2511 61.1556 11.7398 60.8537 11.3491C60.5554 10.955 60.1577 10.7579 59.6606 10.7579C59.174 10.7579 58.7816 10.9514 58.4834 11.3385C58.1851 11.7256 58.0359 12.2795 58.0359 13.0004ZM64.4546 10.0547L64.4812 10.6939C64.9038 10.1968 65.4738 9.94821 66.1911 9.94821C66.9972 9.94821 67.5459 10.2572 67.837 10.8751C68.0288 10.5981 68.2774 10.3743 68.5828 10.2039C68.8917 10.0334 69.2557 9.94821 69.6748 9.94821C70.939 9.94821 71.5817 10.6176 71.603 11.9564V15.8182H70.6176V12.015C70.6176 11.603 70.5235 11.2959 70.3353 11.0935C70.1471 10.8875 69.831 10.7845 69.3871 10.7845C69.0213 10.7845 68.7177 10.8946 68.4763 11.1148C68.2348 11.3314 68.0945 11.6243 68.0554 11.9937V15.8182H67.0647V12.0416C67.0647 11.2035 66.6545 10.7845 65.8342 10.7845C65.1879 10.7845 64.7458 11.0597 64.5079 11.6101V15.8182H63.5224V10.0547H64.4546ZM74.1652 15.8182H73.1797V10.0547H74.1652V15.8182ZM73.0998 8.52598C73.0998 8.36618 73.1478 8.23124 73.2437 8.12115C73.3431 8.01106 73.4887 7.95602 73.6804 7.95602C73.8722 7.95602 74.0178 8.01106 74.1172 8.12115C74.2167 8.23124 74.2664 8.36618 74.2664 8.52598C74.2664 8.68578 74.2167 8.81895 74.1172 8.92548C74.0178 9.03202 73.8722 9.08528 73.6804 9.08528C73.4887 9.08528 73.3431 9.03202 73.2437 8.92548C73.1478 8.81895 73.0998 8.68578 73.0998 8.52598ZM76.6794 10.0547L76.7113 10.7792C77.1517 10.2252 77.727 9.94821 78.4372 9.94821C79.6552 9.94821 80.2696 10.6354 80.2802 12.0096V15.8182H79.2948V12.0043C79.2912 11.5888 79.1954 11.2817 79.0071 11.0828C78.8225 10.8839 78.5331 10.7845 78.1389 10.7845C77.8193 10.7845 77.5387 10.8697 77.2973 11.0402C77.0558 11.2106 76.8676 11.4344 76.7326 11.7113V15.8182H75.7472V10.0547H76.6794ZM81.532 12.8886C81.532 11.9901 81.7397 11.2763 82.1552 10.7472C82.5707 10.2145 83.1211 9.94821 83.8065 9.94821C84.5096 9.94821 85.0583 10.1968 85.4525 10.6939L85.5004 10.0547H86.4006V15.6797C86.4006 16.4255 86.1787 17.0132 85.7348 17.4429C85.2944 17.8726 84.7014 18.0874 83.9557 18.0874C83.5402 18.0874 83.1336 17.9986 82.7358 17.8211C82.3381 17.6435 82.0345 17.4003 81.825 17.0913L82.3363 16.5001C82.7589 17.0221 83.2756 17.2831 83.8864 17.2831C84.3658 17.2831 84.7387 17.1481 85.005 16.8783C85.2749 16.6084 85.4098 16.2284 85.4098 15.7383V15.243C85.0157 15.6975 84.4777 15.9248 83.7959 15.9248C83.1211 15.9248 82.5743 15.6531 82.1552 15.1098C81.7397 14.5665 81.532 13.826 81.532 12.8886ZM82.5228 13.0004C82.5228 13.6503 82.6559 14.1616 82.9223 14.5345C83.1886 14.9038 83.5615 15.0885 84.0409 15.0885C84.6623 15.0885 85.1187 14.8062 85.4098 14.2415V11.6101C85.108 11.0597 84.6552 10.7845 84.0515 10.7845C83.5721 10.7845 83.1975 10.9709 82.9276 11.3438C82.6577 11.7167 82.5228 12.2689 82.5228 13.0004ZM93.9539 14.2895C93.9539 14.0231 93.8527 13.8172 93.6503 13.6716C93.4514 13.5224 93.1016 13.3946 92.6009 13.2881C92.1037 13.1815 91.7078 13.0537 91.413 12.9045C91.1218 12.7554 90.9052 12.5778 90.7632 12.3719C90.6247 12.1659 90.5554 11.9209 90.5554 11.6368C90.5554 11.1645 90.7543 10.765 91.152 10.4383C91.5533 10.1116 92.0647 9.94821 92.6861 9.94821C93.3395 9.94821 93.8686 10.1169 94.2735 10.4542C94.6819 10.7916 94.886 11.2231 94.886 11.7486H93.8953C93.8953 11.4787 93.7799 11.2461 93.549 11.0508C93.3218 10.8555 93.0341 10.7579 92.6861 10.7579C92.3275 10.7579 92.0469 10.836 91.8445 10.9922C91.6421 11.1485 91.5409 11.3527 91.5409 11.6048C91.5409 11.8427 91.635 12.0221 91.8232 12.1428C92.0114 12.2636 92.3505 12.379 92.8406 12.489C93.3342 12.5991 93.7337 12.7305 94.0391 12.8832C94.3445 13.0359 94.57 13.2206 94.7156 13.4372C94.8647 13.6503 94.9393 13.9113 94.9393 14.2202C94.9393 14.7351 94.7334 15.1488 94.3214 15.4613C93.9095 15.7703 93.375 15.9248 92.7181 15.9248C92.2564 15.9248 91.8481 15.8431 91.4929 15.6797C91.1378 15.5164 90.8591 15.2891 90.6566 14.9979C90.4578 14.7032 90.3584 14.3854 90.3584 14.0444H91.3438C91.3615 14.3747 91.4929 14.6375 91.738 14.8328C91.9865 15.0246 92.3133 15.1204 92.7181 15.1204C93.091 15.1204 93.3892 15.0459 93.613 14.8967C93.8402 14.744 93.9539 14.5416 93.9539 14.2895ZM95.962 12.8832C95.962 12.3186 96.0721 11.8108 96.2923 11.3598C96.516 10.9088 96.825 10.5608 97.2191 10.3158C97.6169 10.0707 98.0696 9.94821 98.5775 9.94821C99.3623 9.94821 99.9961 10.2199 100.479 10.7632C100.966 11.3065 101.209 12.0292 101.209 12.9312V13.0004C101.209 13.5615 101.101 14.0658 100.884 14.5132C100.671 14.9571 100.364 15.3033 99.9624 15.5519C99.5647 15.8005 99.1066 15.9248 98.5881 15.9248C97.8069 15.9248 97.173 15.6531 96.6865 15.1098C96.2035 14.5665 95.962 13.8474 95.962 12.9525V12.8832ZM96.9528 13.0004C96.9528 13.6396 97.1002 14.1528 97.3949 14.5398C97.6932 14.9269 98.091 15.1204 98.5881 15.1204C99.0888 15.1204 99.4865 14.9251 99.7813 14.5345C100.076 14.1403 100.223 13.5899 100.223 12.8832C100.223 12.2511 100.072 11.7398 99.7706 11.3491C99.4723 10.955 99.0746 10.7579 98.5775 10.7579C98.091 10.7579 97.6985 10.9514 97.4003 11.3385C97.102 11.7256 96.9528 12.2795 96.9528 13.0004ZM102.184 12.8832C102.184 12.3186 102.294 11.8108 102.514 11.3598C102.738 10.9088 103.047 10.5608 103.441 10.3158C103.838 10.0707 104.291 9.94821 104.799 9.94821C105.584 9.94821 106.218 10.2199 106.701 10.7632C107.187 11.3065 107.43 12.0292 107.43 12.9312V13.0004C107.43 13.5615 107.322 14.0658 107.106 14.5132C106.892 14.9571 106.585 15.3033 106.184 15.5519C105.786 15.8005 105.328 15.9248 104.81 15.9248C104.028 15.9248 103.395 15.6531 102.908 15.1098C102.425 14.5665 102.184 13.8474 102.184 12.9525V12.8832ZM103.174 13.0004C103.174 13.6396 103.322 14.1528 103.617 14.5398C103.915 14.9269 104.313 15.1204 104.81 15.1204C105.31 15.1204 105.708 14.9251 106.003 14.5345C106.298 14.1403 106.445 13.5899 106.445 12.8832C106.445 12.2511 106.294 11.7398 105.992 11.3491C105.694 10.955 105.296 10.7579 104.799 10.7579C104.313 10.7579 103.92 10.9514 103.622 11.3385C103.324 11.7256 103.174 12.2795 103.174 13.0004ZM109.598 10.0547L109.63 10.7792C110.071 10.2252 110.646 9.94821 111.356 9.94821C112.574 9.94821 113.189 10.6354 113.199 12.0096V15.8182H112.214V12.0043C112.21 11.5888 112.114 11.2817 111.926 11.0828C111.742 10.8839 111.452 10.7845 111.058 10.7845C110.738 10.7845 110.458 10.8697 110.216 11.0402C109.975 11.2106 109.787 11.4344 109.652 11.7113V15.8182H108.666V10.0547H109.598ZM118.728 8.65915V10.0547H119.804V10.8165H118.728V14.3907C118.728 14.6215 118.776 14.7955 118.872 14.9127C118.968 15.0263 119.131 15.0832 119.362 15.0832C119.476 15.0832 119.632 15.0618 119.831 15.0192V15.8182C119.572 15.8893 119.32 15.9248 119.075 15.9248C118.634 15.9248 118.302 15.7916 118.079 15.5253C117.855 15.2589 117.743 14.8807 117.743 14.3907V10.8165H116.694V10.0547H117.743V8.65915H118.728ZM120.593 12.8832C120.593 12.3186 120.703 11.8108 120.923 11.3598C121.147 10.9088 121.456 10.5608 121.85 10.3158C122.248 10.0707 122.7 9.94821 123.208 9.94821C123.993 9.94821 124.627 10.2199 125.11 10.7632C125.596 11.3065 125.84 12.0292 125.84 12.9312V13.0004C125.84 13.5615 125.731 14.0658 125.515 14.5132C125.302 14.9571 124.994 15.3033 124.593 15.5519C124.195 15.8005 123.737 15.9248 123.219 15.9248C122.438 15.9248 121.804 15.6531 121.317 15.1098C120.834 14.5665 120.593 13.8474 120.593 12.9525V12.8832ZM121.583 13.0004C121.583 13.6396 121.731 14.1528 122.026 14.5398C122.324 14.9269 122.722 15.1204 123.219 15.1204C123.719 15.1204 124.117 14.9251 124.412 14.5345C124.707 14.1403 124.854 13.5899 124.854 12.8832C124.854 12.2511 124.703 11.7398 124.401 11.3491C124.103 10.955 123.705 10.7579 123.208 10.7579C122.722 10.7579 122.329 10.9514 122.031 11.3385C121.733 11.7256 121.583 12.2795 121.583 13.0004Z" fill="white"/>
<path d="M59.3718 33.9635H53.5636L52.3484 37.4546H49.64L55.304 22.4603H57.6417L63.3161 37.4546H60.5973L59.3718 33.9635ZM54.2948 31.8626H58.6407L56.4677 25.6424L54.2948 31.8626ZM74.0469 31.9965C74.0469 33.7197 73.6556 35.0963 72.8729 36.1261C72.0902 37.1491 71.0398 37.6606 69.7216 37.6606C68.4996 37.6606 67.5212 37.2589 66.7866 36.4557V41.7387H64.2841V26.3118H66.591L66.6939 27.4446C67.4285 26.5521 68.4275 26.1059 69.6907 26.1059C71.0501 26.1059 72.1143 26.6139 72.8832 27.63C73.659 28.6392 74.0469 30.0433 74.0469 31.842V31.9965ZM71.5547 31.7802C71.5547 30.668 71.3316 29.7858 70.8853 29.1336C70.4459 28.4813 69.8143 28.1552 68.9905 28.1552C67.9675 28.1552 67.2329 28.5775 66.7866 29.4219V34.3651C67.2397 35.2302 67.9812 35.6627 69.0111 35.6627C69.8075 35.6627 70.4288 35.3434 70.875 34.7049C71.3282 34.0596 71.5547 33.0847 71.5547 31.7802ZM85.9312 31.9965C85.9312 33.7197 85.5398 35.0963 84.7571 36.1261C83.9745 37.1491 82.924 37.6606 81.6059 37.6606C80.3838 37.6606 79.4055 37.2589 78.6709 36.4557V41.7387H76.1684V26.3118H78.4752L78.5782 27.4446C79.3128 26.5521 80.3117 26.1059 81.575 26.1059C82.9343 26.1059 83.9985 26.6139 84.7674 27.63C85.5432 28.6392 85.9312 30.0433 85.9312 31.842V31.9965ZM83.439 31.7802C83.439 30.668 83.2158 29.7858 82.7696 29.1336C82.3302 28.4813 81.6986 28.1552 80.8747 28.1552C79.8517 28.1552 79.1171 28.5775 78.6709 29.4219V34.3651C79.124 35.2302 79.8655 35.6627 80.8953 35.6627C81.6917 35.6627 82.313 35.3434 82.7593 34.7049C83.2124 34.0596 83.439 33.0847 83.439 31.7802ZM101.389 33.5927C101.389 32.9336 101.155 32.4256 100.689 32.0686C100.229 31.7116 99.3945 31.3511 98.1861 30.9873C96.9778 30.6234 96.0166 30.2183 95.3026 29.7721C93.9364 28.9139 93.2532 27.7948 93.2532 26.4148C93.2532 25.2065 93.7441 24.211 94.7259 23.4283C95.7145 22.6456 96.995 22.2543 98.5672 22.2543C99.6107 22.2543 100.541 22.4465 101.358 22.831C102.175 23.2155 102.817 23.7647 103.284 24.4787C103.751 25.1859 103.984 25.972 103.984 26.837H101.389C101.389 26.0544 101.142 25.4433 100.647 25.004C100.16 24.5577 99.4597 24.3346 98.5466 24.3346C97.6952 24.3346 97.0327 24.5165 96.559 24.8804C96.0921 25.2442 95.8587 25.7523 95.8587 26.4045C95.8587 26.9538 96.1127 27.4138 96.6208 27.7845C97.1288 28.1484 97.9664 28.5054 99.1336 28.8555C100.301 29.1988 101.238 29.5936 101.945 30.0398C102.652 30.4792 103.17 30.9873 103.5 31.564C103.83 32.1338 103.994 32.8032 103.994 33.5721C103.994 34.8217 103.514 35.8172 102.553 36.5586C101.598 37.2932 100.301 37.6606 98.6598 37.6606C97.5751 37.6606 96.5762 37.4615 95.663 37.0633C94.7568 36.6582 94.0496 36.1021 93.5416 35.3949C93.0404 34.6878 92.7898 33.8639 92.7898 32.9233H95.3953C95.3953 33.7747 95.6768 34.4338 96.2397 34.9006C96.8027 35.3675 97.6094 35.6009 98.6598 35.6009C99.5661 35.6009 100.246 35.419 100.699 35.0551C101.159 34.6843 101.389 34.1969 101.389 33.5927ZM109.174 23.6034V26.3118H111.141V28.1655H109.174V34.3857C109.174 34.8114 109.257 35.1203 109.422 35.3125C109.593 35.4979 109.895 35.5906 110.328 35.5906C110.616 35.5906 110.908 35.5563 111.203 35.4876V37.4237C110.633 37.5816 110.084 37.6606 109.555 37.6606C107.633 37.6606 106.672 36.5998 106.672 34.4784V28.1655H104.839V26.3118H106.672V23.6034H109.174ZM112.284 31.7802C112.284 30.6886 112.501 29.7068 112.933 28.8349C113.366 27.9561 113.973 27.2833 114.756 26.8165C115.539 26.3427 116.438 26.1059 117.454 26.1059C118.958 26.1059 120.176 26.5899 121.11 27.5579C122.051 28.526 122.559 29.8098 122.634 31.4095L122.645 31.9965C122.645 33.095 122.432 34.0767 122.006 34.9418C121.587 35.8069 120.983 36.4763 120.194 36.95C119.411 37.4237 118.505 37.6606 117.475 37.6606C115.903 37.6606 114.643 37.1388 113.695 36.0952C112.755 35.0448 112.284 33.6477 112.284 31.9038V31.7802ZM114.787 31.9965C114.787 33.143 115.024 34.0424 115.498 34.6946C115.971 35.34 116.63 35.6627 117.475 35.6627C118.319 35.6627 118.975 35.3331 119.442 34.6741C119.916 34.015 120.152 33.0504 120.152 31.7802C120.152 30.6543 119.909 29.7618 119.421 29.1027C118.941 28.4436 118.285 28.114 117.454 28.114C116.637 28.114 115.988 28.4401 115.508 29.0924C115.027 29.7377 114.787 30.7058 114.787 31.9965ZM130.595 28.5981C130.265 28.5431 129.925 28.5157 129.575 28.5157C128.429 28.5157 127.656 28.9551 127.258 29.8339V37.4546H124.756V26.3118H127.145L127.207 27.5579C127.811 26.5899 128.648 26.1059 129.72 26.1059C130.077 26.1059 130.372 26.1539 130.605 26.25L130.595 28.5981ZM136.877 37.6606C135.291 37.6606 134.004 37.1628 133.015 36.1673C132.033 35.1649 131.542 33.833 131.542 32.1716V31.8626C131.542 30.7504 131.755 29.7583 132.181 28.8864C132.613 28.0076 133.217 27.3245 133.993 26.837C134.769 26.3496 135.634 26.1059 136.588 26.1059C138.106 26.1059 139.276 26.5899 140.1 27.5579C140.931 28.526 141.346 29.8956 141.346 31.6669V32.6762H134.065C134.141 33.5962 134.446 34.3239 134.982 34.8594C135.524 35.3949 136.204 35.6627 137.021 35.6627C138.168 35.6627 139.101 35.1993 139.822 34.2724L141.171 35.5597C140.725 36.2257 140.128 36.744 139.379 37.1147C138.638 37.4786 137.804 37.6606 136.877 37.6606ZM136.578 28.114C135.892 28.114 135.336 28.3543 134.91 28.8349C134.491 29.3155 134.223 29.9849 134.107 30.8431H138.875V30.6577C138.82 29.8201 138.597 29.1885 138.205 28.7628C137.814 28.3303 137.272 28.114 136.578 28.114Z" fill="white"/>
<path fill-rule="evenodd" clip-rule="evenodd" d="M30.7795 8C29.2412 8.06432 27.3773 9.02156 26.2741 10.3085C25.2825 11.4514 24.4168 13.2755 24.6502 15.0244C26.3676 15.1584 28.1176 14.1553 29.1867 12.8677C30.2536 11.5778 30.976 9.78766 30.7795 8ZM30.3445 38.4375C32.4287 38.3988 33.7488 36.5523 35.025 34.6943C36.4234 32.6591 37.0409 30.6859 37.133 30.3917C37.1381 30.3753 37.1416 30.3642 37.1435 30.3584C37.1426 30.358 37.14 30.357 37.1358 30.3553C36.9353 30.2741 33.0776 28.7117 33.0392 24.1952C33.0015 20.4656 35.9873 18.6103 36.316 18.406C36.3274 18.3989 36.3356 18.3938 36.3404 18.3907C34.5432 15.7726 31.7449 15.4137 30.7478 15.3727C29.2914 15.226 27.8784 15.7805 26.724 16.2337C25.9903 16.5216 25.3611 16.7686 24.8914 16.7686C24.3686 16.7686 23.7221 16.513 22.9966 16.2261C22.047 15.8507 20.9619 15.4217 19.8417 15.4423C17.2472 15.481 14.8529 16.9465 13.5167 19.2628C10.8184 23.9269 12.8247 30.8381 15.4534 34.6199C16.7401 36.4695 18.2701 38.5512 20.2822 38.4762C21.1806 38.4403 21.82 38.1691 22.4813 37.8886C23.2455 37.5645 24.0388 37.2279 25.295 37.2279C26.4914 37.2279 27.2481 37.5541 27.9759 37.8678C28.672 38.1678 29.3417 38.4565 30.3445 38.4375Z" fill="white"/>
</svg>
